<?xml version="1.0" standalone="no"?>
<!DOCTYPE svg PUBLIC "-//W3C//DTD SVG 20010904//EN"
 "http://www.w3.org/TR/2001/REC-SVG-20010904/DTD/svg10.dtd">
<svg version="1.0" xmlns="http://www.w3.org/2000/svg"
 width="512.000000pt" height="512.000000pt" viewBox="0 0 512.000000 512.000000"
 preserveAspectRatio="xMidYMid meet">

<g transform="translate(0.000000,512.000000) scale(0.100000,-0.100000)"
fill="#000000" stroke="none">
<path d="M4513 4515 c-172 -37 -328 -186 -373 -354 -14 -55 -70 -678 -63 -700
21 -59 106 -72 134 -20 5 11 23 164 39 342 17 197 35 339 44 366 59 163 240
259 406 217 149 -38 250 -151 265 -297 6 -51 -146 -1844 -161 -1907 -22 -90
-97 -182 -186 -229 -47 -25 -64 -28 -148 -28 -82 0 -103 4 -150 26 -116 55
-190 161 -198 284 -2 39 13 259 33 493 41 458 40 463 -12 483 -39 15 -89 -10
-97 -48 -10 -50 -76 -824 -76 -898 0 -137 45 -249 140 -345 108 -110 229 -156
385 -147 159 8 295 85 382 215 75 112 73 98 164 1132 92 1056 91 1008 25 1146
-65 137 -194 238 -345 270 -80 17 -127 17 -208 -1z"/>
<path d="M1571 3770 c-113 -17 -215 -73 -296 -162 -27 -30 -90 -126 -139 -212
-49 -86 -93 -156 -98 -156 -5 0 -79 41 -165 90 -215 123 -243 134 -373 134
-86 0 -116 -5 -165 -24 -247 -96 -382 -342 -320 -585 49 -188 112 -249 476
-457 151 -86 282 -163 291 -170 11 -9 63 -187 158 -543 159 -595 171 -627 272
-720 102 -94 207 -135 347 -135 240 1 440 171 483 411 6 35 12 65 13 67 1 1
32 -11 68 -28 83 -37 228 -80 273 -80 44 0 74 30 74 73 0 47 -24 65 -116 87
-95 23 -186 59 -270 107 l-62 36 -47 176 c-26 97 -54 184 -63 194 -33 37 -107
17 -125 -35 -3 -9 21 -117 54 -240 53 -197 60 -231 56 -295 -7 -127 -82 -238
-197 -292 -47 -22 -68 -26 -150 -26 -79 0 -103 4 -142 24 -70 34 -134 95 -162
154 -14 29 -91 297 -171 596 -80 300 -151 551 -157 558 -13 16 -53 40 -369
222 -136 78 -265 158 -287 177 -25 21 -55 62 -74 102 -30 60 -33 76 -33 152 0
76 4 93 33 152 38 77 92 130 171 166 45 21 71 26 136 27 100 0 115 -6 355
-145 199 -115 240 -129 272 -92 8 9 64 103 123 207 125 219 176 279 271 315
70 27 177 30 242 6 179 -65 276 -265 214 -441 -10 -27 -95 -183 -188 -345 -94
-162 -174 -303 -177 -312 -9 -24 85 -363 108 -388 37 -41 125 -10 125 44 0 10
-18 85 -40 167 l-41 149 150 258 c210 364 231 409 231 505 0 35 3 39 48 58
154 66 347 97 507 79 243 -26 436 -115 612 -283 183 -175 288 -393 313 -647
49 -509 -308 -994 -808 -1096 -94 -19 -124 -43 -120 -93 2 -23 12 -40 30 -54
25 -18 31 -19 90 -7 415 81 753 369 893 760 218 611 -100 1288 -707 1505 -142
50 -250 69 -408 68 -149 0 -240 -16 -383 -64 -49 -17 -90 -29 -91 -27 -1 2
-15 30 -31 63 -35 73 -131 173 -200 207 -106 53 -213 73 -314 58z"/>
<path d="M2517 2680 c-85 -22 -172 -92 -215 -175 -23 -44 -27 -62 -27 -145 0
-111 21 -167 90 -235 119 -119 317 -127 444 -18 181 154 147 440 -64 544 -70
34 -160 46 -228 29z m178 -171 c55 -38 80 -84 79 -148 0 -105 -62 -172 -164
-179 -48 -4 -66 0 -100 19 -98 55 -121 196 -47 278 57 62 164 76 232 30z"/>
<path d="M4243 1575 c-227 -62 -373 -251 -373 -484 0 -136 38 -235 127 -331
125 -135 293 -192 463 -156 106 23 175 59 251 135 102 102 149 213 149 350 0
92 -17 159 -61 240 -104 196 -346 302 -556 246z m270 -169 c73 -35 149 -117
177 -194 29 -75 24 -194 -9 -264 -110 -230 -407 -274 -576 -85 -64 71 -88 141
-83 247 6 119 45 191 144 266 91 70 236 82 347 30z"/>
</g>
</svg>
